<svg xmlns="http://www.w3.org/2000/svg" xmlns:xlink="http://www.w3.org/1999/xlink" width="30" height="30" viewBox="0 0 30 30">
  <defs>
    <linearGradient id="linear-gradient" x1="0.5" x2="0.5" y2="1" gradientUnits="objectBoundingBox">
      <stop offset="0" stop-color="#fdd311"/>
      <stop offset="1" stop-color="#f89c1c"/>
    </linearGradient>
  </defs>
  <path id="Subtraction_3" data-name="Subtraction 3" d="M-574,103a14.9,14.9,0,0,1-10.606-4.393A14.9,14.9,0,0,1-589,88a14.9,14.9,0,0,1,4.393-10.607A14.9,14.9,0,0,1-574,73a14.9,14.9,0,0,1,10.607,4.393A14.9,14.9,0,0,1-559,88a14.9,14.9,0,0,1-4.393,10.606A14.9,14.9,0,0,1-574,103Zm-5.5-16.5A1.5,1.5,0,0,0-581,88a1.5,1.5,0,0,0,1.5,1.5h4v4A1.5,1.5,0,0,0-574,95a1.5,1.5,0,0,0,1.5-1.5v-4h4A1.5,1.5,0,0,0-567,88a1.5,1.5,0,0,0-1.5-1.5h-4v-4A1.5,1.5,0,0,0-574,81a1.5,1.5,0,0,0-1.5,1.5v4Z" transform="translate(589 -73)" fill="url(#linear-gradient)"/>
</svg>
