<svg xmlns="http://www.w3.org/2000/svg" xmlns:xlink="http://www.w3.org/1999/xlink" width="190.527" height="91.894" viewBox="0 0 190.527 91.894">
  <defs>
    <style>
      .cls-1 {
        fill: none;
      }

      .cls-2 {
        fill: #1b1c1c;
        opacity: 0.13;
      }

      .cls-3 {
        isolation: isolate;
      }

      .cls-4 {
        fill: #d39a29;
      }

      .cls-5 {
        fill: url(#linear-gradient);
      }

      .cls-6 {
        fill: #fdbf1b;
      }

      .cls-7 {
        fill: url(#linear-gradient-2);
      }

      .cls-8 {
        fill: #fbb315;
      }

      .cls-9 {
        fill: #d83434;
      }

      .cls-10 {
        fill: #ef4848;
      }

      .cls-11 {
        fill: url(#linear-gradient-3);
      }

      .cls-12 {
        clip-path: url(#clip-path);
      }

      .cls-13 {
        fill: #ee4865;
      }

      .cls-14 {
        fill: #be263f;
      }

      .cls-15 {
        clip-path: url(#clip-path-2);
      }

      .cls-16 {
        fill: #e12c4a;
      }

      .cls-17 {
        fill: url(#linear-gradient-4);
      }

      .cls-18 {
        fill: url(#linear-gradient-5);
      }

      .cls-19 {
        fill: #fff;
      }

      .cls-20 {
        fill: url(#linear-gradient-6);
      }

      .cls-21 {
        fill: url(#linear-gradient-15);
      }

      .cls-22 {
        fill: #231f20;
      }
    </style>
    <linearGradient id="linear-gradient" x1="0.383" y1="-0.378" x2="0.523" y2="0.833" gradientUnits="objectBoundingBox">
      <stop offset="0" stop-color="#fbb315"/>
      <stop offset="0.309" stop-color="#faf188"/>
      <stop offset="1" stop-color="#c4902c"/>
    </linearGradient>
    <linearGradient id="linear-gradient-2" x1="0.697" y1="-0.218" x2="0.455" y2="0.832" gradientUnits="objectBoundingBox">
      <stop offset="0" stop-color="#fbb315"/>
      <stop offset="0.278" stop-color="#faf188"/>
      <stop offset="0.886" stop-color="#c4902c"/>
    </linearGradient>
    <linearGradient id="linear-gradient-3" x1="0.466" y1="-0.136" x2="0.543" y2="1" gradientUnits="objectBoundingBox">
      <stop offset="0" stop-color="#fbb315"/>
      <stop offset="0.278" stop-color="#faf188"/>
      <stop offset="0.845" stop-color="#c4902c"/>
    </linearGradient>
    <clipPath id="clip-path">
      <path id="SVGID" class="cls-1" d="M628.844,367.927l-16.686,2.715-.754-8.227,17.582-3.2Z" transform="translate(-611.404 -359.215)"/>
    </clipPath>
    <clipPath id="clip-path-2">
      <path id="SVGID-2" data-name="SVGID" class="cls-1" d="M694.3,362.292l-1.051,7.891-17.215-2.255.142-8.712Z" transform="translate(-676.03 -359.215)"/>
    </clipPath>
    <linearGradient id="linear-gradient-4" x1="1.879" y1="-0.382" x2="-0.933" y2="1.299" gradientUnits="objectBoundingBox">
      <stop offset="0" stop-color="#fdd311"/>
      <stop offset="1" stop-color="#f89c1c"/>
    </linearGradient>
    <linearGradient id="linear-gradient-5" x1="0.861" y1="-0.133" x2="0.097" y2="1.224" xlink:href="#linear-gradient-4"/>
    <linearGradient id="linear-gradient-6" x1="0" y1="0.5" x2="1" y2="0.5" xlink:href="#linear-gradient-4"/>
    <linearGradient id="linear-gradient-15" x1="0" y1="0.5" x2="1" y2="0.5" xlink:href="#linear-gradient-4"/>
  </defs>
  <g id="Group_10" data-name="Group 10" transform="translate(-284.962 -288.184)">
    <g id="Group_9" data-name="Group 9" transform="translate(337.9 288.184)">
      <path id="Path_1" data-name="Path 1" class="cls-2" d="M644.1,397.1a11.047,11.047,0,0,0-4.139-.783,11.482,11.482,0,0,0-7,2.369c-.021,0-.041.041-.041.041a10.462,10.462,0,0,0-2.265,2.306l-1.318-.062h-.165l-1.318-.082h-.021l-2.513-.124-3.13-.144h-.021l-2.8-.144-1.874-.1-5.066-.247-1.03-.062-.535-.02h-.02l-1.977-.1-1.38-.082a10.943,10.943,0,0,0-3.336-2.368v-.021a11.494,11.494,0,0,0-5.046-1.153,10.162,10.162,0,0,0-1.606.124c.906-3.81,3.789-4,6.178-3.4L602.3,379.8a16.834,16.834,0,0,1,4.181-.391,35.624,35.624,0,0,1,4.7.391c1.442.185,3.027.453,4.8.824,1.339.288,2.533.577,3.6.906,3.666,1.112,5.808,2.471,7.023,3.789a5.742,5.742,0,0,1,1.359,2.389c.309-2.945,1.277-7.517,4.263-8.835a5.163,5.163,0,0,1,3.522-.124l-1.133,8.155c.762.639,1.977,2.2,1.668,5.5-.165,2,2.142.206,4.716,1.174A5.412,5.412,0,0,1,644.1,397.1Z" transform="translate(-566.097 -354.134)"/>
      <g id="Group_7" data-name="Group 7" transform="translate(35.123 11.525)">
        <g id="Group_1" data-name="Group 1" class="cls-3" transform="translate(0 2.975)">
          <path id="Path_2" data-name="Path 2" class="cls-4" d="M635.712,348l-3.851.988-1.153.289h-.041l-.144.041a.072.072,0,0,0-.041-.021c-.062-.041-.165-.1-.309-.206h-.021c-.041-.021-.062-.041-.1-.062a35.991,35.991,0,0,0-6.322-2.945,5.094,5.094,0,0,0-.741-.227,5.5,5.5,0,0,0-2.822-.206l3.13-.8,1.853-.453c.062-.021.124-.041.206-.062a4.914,4.914,0,0,1,2.183.041C630.852,345.054,635.424,347.813,635.712,348Z" transform="translate(-617.769 -343.604)"/>
          <path id="Path_3" data-name="Path 3" class="cls-5" d="M617.435,346.948c-1.649-1.89-1.019-3.965.916-4.511-5.44,1.377-6.192,1.335-6.816,2.575a2.96,2.96,0,0,0,.707,3.251c1.95,2.235,10.738.492,11.2.4l5.193-1.314C628.173,347.44,619.384,349.183,617.435,346.948Z" transform="translate(-611.292 -342.297)"/>
          <path id="Path_4" data-name="Path 4" class="cls-6" d="M643.674,346.311h-.35c-.289-.185-4.86-2.945-8.176-3.624a4.915,4.915,0,0,0-2.183-.041c-.082.021-.144.041-.206.062a1.9,1.9,0,0,0-.206.1,2.083,2.083,0,0,0-1.215,1.586c-.082,1.318,1.606,2.657,4.2,2.863.741.062,1.441.082,2.121.082h.041a16.536,16.536,0,0,0,1.771-.041c1.112-.062,2.018-.165,2.595-.226-.783.144-2.2.371-3.748.515h-.041a.573.573,0,0,0-.185.021h-.1c-2.574.206-5.457.124-6.467-1.05a3.282,3.282,0,0,1-.927-2.389,1.938,1.938,0,0,1,.309-1.009,2.6,2.6,0,0,1,1.545-1.112,4.482,4.482,0,0,1,2.162,0,5.476,5.476,0,0,1,.556.144C638.629,343.14,643.407,346.147,643.674,346.311Z" transform="translate(-625.382 -341.917)"/>
        </g>
        <g id="Group_2" data-name="Group 2" class="cls-3" transform="translate(16.754 1.77)">
          <path id="Path_5" data-name="Path 5" class="cls-4" d="M682.783,340.294c-.053.012-.092.021-.138.034-2.516.694-6.51,5.4-8.091,7.453l6.085,1.723c1.5-1.935,6.39-7.8,8.825-7.531a3.123,3.123,0,0,1,.516.1C683.4,340.208,683.51,340.133,682.783,340.294Z" transform="translate(-674.236 -339.486)"/>
          <path id="Path_6" data-name="Path 6" class="cls-7" d="M692.452,339.5l-6.084-1.723c1.907.54,1.863,3.39.207,4.825-2.019,1.75-6.673,3.137-9.26,3.731l6.084,1.723c2.541-.584,8.985-2.411,10.108-4.772C694.167,341.89,694.06,339.951,692.452,339.5Z" transform="translate(-676.252 -337.685)"/>
          <path id="Path_7" data-name="Path 7" class="cls-8" d="M682.407,337.483c1.945-.287,3.137,1.346,2.192,3.722-1.121,2.815-9.707,4.785-10.159,4.889a33.007,33.007,0,0,0,6.693-2.637c3.326-1.773,4.239-4.931,1.388-5.242a1.685,1.685,0,0,0-.429.012c-2.922.433-8.123,7.165-8.4,7.519l-.318.138c.2-.273,4.054-5.452,7.042-7.542A4.745,4.745,0,0,1,682.407,337.483Z" transform="translate(-673.376 -337.45)"/>
        </g>
        <path id="Path_8" data-name="Path 8" class="cls-9" d="M631.916,364.23l-.021,1.256v.329l-.062,5.293-.1,9.721-.1,9.226-.02,1.751v.144l-.021,1.256a10.757,10.757,0,0,0-2.286-1.133,13.017,13.017,0,0,0-4.531-.824h-.082a13.94,13.94,0,0,0-3.254.391c-.02,0-.041.02-.062.02v-.124a11.459,11.459,0,0,0-1.627-2.1,10.938,10.938,0,0,0-3.336-2.369v-.021l-.474-4.428-1.38-13.242-.268-2.615,4.119-.6,4.778-.68,7.867-1.133.268-.041h.021Z" transform="translate(-613.479 -355.233)"/>
        <path id="Path_9" data-name="Path 9" class="cls-10" d="M691.635,365.981l-2.018-.268-3.172-.432-1.4-.186h-.02l-3.295-.453h-.041l-.329-.062h-.021l-2.616-.35-.021,1.256v.329l-.062,5.293-.1,9.721-.1,9.226-.02,1.751v.144l-.021,1.256a12.334,12.334,0,0,1,1.5,1.194,8.429,8.429,0,0,1,6.137-2.636,7.918,7.918,0,0,1,2,.247,3.892,3.892,0,0,1,.7.206,7.218,7.218,0,0,1,.495-.865,4.607,4.607,0,0,1,.494-.741,10.462,10.462,0,0,1,2.265-2.306s.021-.041.041-.041l.1-.741.021-.165.165-1.092,1.359-9.782,1.133-8.155.268-1.874Z" transform="translate(-660.286 -355.233)"/>
        <path id="Path_10" data-name="Path 10" class="cls-11" d="M650.467,339.662c-4.633-3.8-2.616-7.284-1.911-7.73.783-.494,8.675-1.814,11.362-.424s-.926,7.691-.926,7.691Z" transform="translate(-637.736 -330.891)"/>
        <g id="Group_4" data-name="Group 4" transform="translate(0.03 7.643)">
          <g id="Group_3" data-name="Group 3" class="cls-12">
            <path id="Path_11" data-name="Path 11" class="cls-13" d="M628.844,367.927l-16.686,2.715-.754-8.227,17.582-3.2Z" transform="translate(-611.404 -359.215)"/>
            <rect id="Rectangle_1" data-name="Rectangle 1" class="cls-14" width="0.988" height="23.103" transform="translate(6.304 -3.405) rotate(39.223)"/>
            <rect id="Rectangle_2" data-name="Rectangle 2" class="cls-14" width="0.988" height="23.103" transform="translate(9.022 -3.405) rotate(39.224)"/>
            <rect id="Rectangle_3" data-name="Rectangle 3" class="cls-14" width="0.988" height="23.103" transform="translate(11.74 -3.405) rotate(39.222)"/>
            <rect id="Rectangle_4" data-name="Rectangle 4" class="cls-14" width="0.988" height="23.103" transform="translate(14.458 -3.405) rotate(39.223)"/>
            <rect id="Rectangle_5" data-name="Rectangle 5" class="cls-14" width="0.988" height="23.103" transform="matrix(0.775, 0.632, -0.632, 0.775, 17.176, -3.405)"/>
            <rect id="Rectangle_6" data-name="Rectangle 6" class="cls-14" width="0.988" height="23.103" transform="translate(19.894 -3.405) rotate(39.222)"/>
            <rect id="Rectangle_7" data-name="Rectangle 7" class="cls-14" width="0.988" height="23.103" transform="translate(22.612 -3.405) rotate(39.224)"/>
            <rect id="Rectangle_8" data-name="Rectangle 8" class="cls-14" width="0.988" height="23.103" transform="translate(25.33 -3.405) rotate(39.223)"/>
          </g>
        </g>
        <g id="Group_6" data-name="Group 6" transform="translate(17.47 7.643)">
          <g id="Group_5" data-name="Group 5" class="cls-15">
            <path id="Path_12" data-name="Path 12" class="cls-16" d="M694.3,362.292l-1.051,7.891-17.215-2.255.142-8.712Z" transform="translate(-676.03 -359.215)"/>
            <rect id="Rectangle_9" data-name="Rectangle 9" class="cls-13" width="0.988" height="23.103" transform="matrix(0.775, 0.632, -0.632, 0.775, 6.779, -6.555)"/>
            <rect id="Rectangle_10" data-name="Rectangle 10" class="cls-13" width="0.988" height="23.103" transform="translate(9.745 -6.555) rotate(39.227)"/>
            <rect id="Rectangle_11" data-name="Rectangle 11" class="cls-13" width="0.988" height="23.103" transform="translate(12.71 -6.555) rotate(39.227)"/>
            <rect id="Rectangle_12" data-name="Rectangle 12" class="cls-13" width="0.988" height="23.103" transform="translate(15.675 -6.555) rotate(39.227)"/>
            <rect id="Rectangle_13" data-name="Rectangle 13" class="cls-13" width="0.988" height="23.103" transform="translate(18.64 -6.555) rotate(39.227)"/>
            <rect id="Rectangle_14" data-name="Rectangle 14" class="cls-13" width="0.988" height="23.103" transform="translate(21.605 -6.555) rotate(39.227)"/>
            <rect id="Rectangle_15" data-name="Rectangle 15" class="cls-13" width="0.988" height="23.103" transform="translate(24.57 -6.555) rotate(39.226)"/>
            <rect id="Rectangle_16" data-name="Rectangle 16" class="cls-13" width="0.988" height="23.103" transform="translate(27.535 -6.555) rotate(39.226)"/>
            <rect id="Rectangle_17" data-name="Rectangle 17" class="cls-13" width="0.988" height="23.103" transform="translate(30.501 -6.555) rotate(39.226)"/>
          </g>
        </g>
        <path id="Path_13" data-name="Path 13" class="cls-17" d="M707.619,365.553l-.1.762-.35,2.471-1.195,8.65-1.854,13.448-.082.577-.041.288-.083.6a7.911,7.911,0,0,0-2-.247,8.493,8.493,0,0,0-1.771.185l.021-.329.1-1.277.041-.535L701.235,379l.309-3.769.659-8.094.124-1.524.082-.927,4.51.741Z" transform="translate(-676.166 -355.568)"/>
        <path id="Path_14" data-name="Path 14" class="cls-18" d="M635.5,391.529a13.935,13.935,0,0,0-3.254.391c-.021,0-.041.02-.062.02v-.124l-.247-2.018-.185-1.73h-.021l-.453-4-1.73-14.807-.33-2.821-.124-.885v-.083l4.84-.865.041.638.021.515.247,3.892.844,13.592.371,6.281.041.453.082,1.545Z" transform="translate(-624.289 -355.512)"/>
      </g>
      <path id="Path_15" data-name="Path 15" class="cls-1" d="M650.969,445a4.6,4.6,0,0,0-1.792,1.071,10.5,10.5,0,0,0-2.121,3.213,4.7,4.7,0,0,0-.247.577.936.936,0,0,0-.082.165,4.419,4.419,0,0,0-1.153-.824h-.021a6.373,6.373,0,0,0-2.471-.659,3.652,3.652,0,0,0-.68-.041,7.088,7.088,0,0,0-2.492.433h-.021a6.807,6.807,0,0,0-2.76,1.75l-.02.021-.021-.021c0-.02,0-.02-.02-.041v-.1a8.908,8.908,0,0,0-1.854-1.854,5.056,5.056,0,0,0-1.75-.906,5.889,5.889,0,0,0-3.357.206c-.412.144-.762.289-.989.391a2.4,2.4,0,0,0-.371.185s-.062-.082-.165-.206h-.02a10.862,10.862,0,0,0-2.162-1.833h-.021a12.817,12.817,0,0,0-4.613-1.854c.041.391.082.762.1,1.112v.021a10.937,10.937,0,0,1,3.336,2.369,11.46,11.46,0,0,1,1.627,2.1v.124c.021,0,.041-.021.062-.021a13.936,13.936,0,0,1,3.254-.391h.082a13.016,13.016,0,0,1,4.531.824,10.751,10.751,0,0,1,2.286,1.133,12.334,12.334,0,0,1,1.5,1.194,8.43,8.43,0,0,1,6.137-2.636,7.913,7.913,0,0,1,2,.247,3.893,3.893,0,0,1,.7.206,7.213,7.213,0,0,1,.494-.865,4.616,4.616,0,0,1,.494-.741,10.462,10.462,0,0,1,2.265-2.306l.144-.783.021-.165L651.01,445Z" transform="translate(-583.817 -402.44)"/>
      <path id="Path_16" data-name="Path 16" class="cls-1" d="M728.8,453.292c-.021,0-.041.041-.041.041" transform="translate(-661.94 -408.737)"/>
      <path id="Path_17" data-name="Path 17" class="cls-19" d="M640.6,465.529c-.02,0-.041.021-.062.021v-.124A.446.446,0,0,1,640.6,465.529Z" transform="translate(-597.525 -417.597)"/>
      <g id="Group_8" data-name="Group 8" transform="translate(0 0)">
        <path id="Path_18" data-name="Path 18" class="cls-20" d="M553.205,344.159a2.147,2.147,0,1,1-2.147-2.147A2.148,2.148,0,0,1,553.205,344.159Z" transform="translate(-530.621 -327.486)"/>
        <circle id="Ellipse_1" data-name="Ellipse 1" class="cls-20" cx="1.074" cy="1.074" r="1.074" transform="translate(25.747 3.279)"/>
        <path id="Path_19" data-name="Path 19" class="cls-20" d="M796.453,364.545a3.033,3.033,0,1,1-3.033-3.033A3.033,3.033,0,0,1,796.453,364.545Z" transform="translate(-706.935 -341.724)"/>
        <path id="Path_20" data-name="Path 20" class="cls-20" d="M860.14,390.316a1.611,1.611,0,1,1-1.611-1.611A1.611,1.611,0,0,1,860.14,390.316Z" transform="translate(-755.513 -361.579)"/>
        <circle id="Ellipse_2" data-name="Ellipse 2" class="cls-20" cx="2.577" cy="2.577" r="2.577" transform="translate(76.55 0.792)"/>
        <path id="Path_21" data-name="Path 21" class="cls-20" d="M794.224,289.473a1.289,1.289,0,1,1-1.289-1.289A1.289,1.289,0,0,1,794.224,289.473Z" transform="translate(-707.855 -288.184)"/>
        <path id="Path_22" data-name="Path 22" class="cls-20" d="M702.426,301.357a.859.859,0,1,1-.859-.859A.859.859,0,0,1,702.426,301.357Z" transform="translate(-641.456 -297.175)"/>
        <path id="Path_23" data-name="Path 23" class="cls-20" d="M485,381.32a1.933,1.933,0,1,1-1.933-1.933A1.933,1.933,0,0,1,485,381.32Z" transform="translate(-481.137 -354.776)"/>
        <path id="Path_24" data-name="Path 24" class="cls-20" d="M582.4,403.423a1.181,1.181,0,1,1-1.181-1.181A1.181,1.181,0,0,1,582.4,403.423Z" transform="translate(-553.349 -371.463)"/>
        <path id="Path_25" data-name="Path 25" class="cls-21" d="M562.534,291.013a.859.859,0,1,1-.859-.859A.859.859,0,0,1,562.534,291.013Z" transform="translate(-539.314 -289.622)"/>
        <circle id="Ellipse_3" data-name="Ellipse 3" class="cls-20" cx="1.503" cy="1.503" r="1.503" transform="matrix(0.232, -0.973, 0.973, 0.232, 39.285, 6.878)"/>
      </g>
    </g>
    <path id="Path_26" data-name="Path 26" class="cls-20" d="M298.561,527.108c-.164-.28-.32-.566-.468-.863s-.28-.591-.4-.886q-3.177-8.377-6.331-16.6t-6.331-16.6a.63.63,0,0,0-.037-.222.567.567,0,0,1-.037-.2q0-.689.912-.69h7.933a1.28,1.28,0,0,1,1.281.937l7.539,22.443,6.972-22.443a1.326,1.326,0,0,1,1.355-.937h8.006a1.2,1.2,0,0,1,.8.21.708.708,0,0,1,.234.554,1,1,0,0,1-.025.271v.074l-4.384,12.564,3.3,9.681,7.982-22.417a1.326,1.326,0,0,1,1.355-.937h7.761a1.2,1.2,0,0,1,.8.21.708.708,0,0,1,.234.554,1,1,0,0,1-.025.271v.074q-1.675,4.334-3.424,8.647t-3.511,8.622q-1.762,4.312-3.5,8.635t-3.387,8.635a1.721,1.721,0,0,1-.444.6,1.161,1.161,0,0,1-.837.332h-6.036a1.381,1.381,0,0,1-.825-.209,1.158,1.158,0,0,1-.406-.554l-3.893-10.248q-.837,2.242-1.65,4.4t-1.626,4.4q-.123.346-.283.727a4.285,4.285,0,0,1-.382.714,2.348,2.348,0,0,1-.505.554,1.021,1.021,0,0,1-.652.222H299.6A1.027,1.027,0,0,1,298.561,527.108Z" transform="translate(0 -148.115)"/>
    <path id="Path_27" data-name="Path 27" class="cls-20" d="M509.739,512.593v27.473a1.889,1.889,0,0,1-.507,1.426,2.131,2.131,0,0,1-1.482.469H502.1a1.651,1.651,0,0,1-1.82-1.9V523.214c3.622,1.914,5.573.375,5.573.375-3.716-1.257-5.085-3-5.573-4.053v-6.943a2.1,2.1,0,0,1,.45-1.351,1.641,1.641,0,0,1,1.37-.563h5.648a1.686,1.686,0,0,1,.638.131,2.256,2.256,0,0,1,.638.394,2.2,2.2,0,0,1,.506.6A1.456,1.456,0,0,1,509.739,512.593Z" transform="translate(-157.214 -162.454)"/>
    <path id="Path_28" data-name="Path 28" class="cls-20" d="M557.367,509.849a1.519,1.519,0,0,1,.678-.346,3.357,3.357,0,0,1,.677-.073h3.72a1.692,1.692,0,0,1,.763.159,1.646,1.646,0,0,1,.542.431,2.289,2.289,0,0,1,.358.615q.135.343.259.712l.517,2.161a5.876,5.876,0,0,1,1.195-1.571,9.1,9.1,0,0,1,2.045-1.475,12.965,12.965,0,0,1,2.821-1.093,13.784,13.784,0,0,1,3.572-.429,10.97,10.97,0,0,1,8.758,4.029,13.029,13.029,0,0,1,2.341,4.362,17.367,17.367,0,0,1,.8,5.33V538.8a2.143,2.143,0,0,1-.407,1.417,1.6,1.6,0,0,1-1.293.48h-5.69a2.2,2.2,0,0,1-1.454-.358,1.863,1.863,0,0,1-.394-1.391V522.908a4.383,4.383,0,0,0-.48-2.007,5.886,5.886,0,0,0-1.268-1.676,6.138,6.138,0,0,0-1.786-1.146,5.23,5.23,0,0,0-2.032-.418,4.6,4.6,0,0,0-1.811.395,6.05,6.05,0,0,0-1.7,1.1,6.451,6.451,0,0,0-1.306,1.651,4.813,4.813,0,0,0-.6,2.056v16.015a2.335,2.335,0,0,1-.16.837,1.328,1.328,0,0,1-.48.641,2.3,2.3,0,0,1-.6.271,2.608,2.608,0,0,1-.653.073h-5.568a1.733,1.733,0,0,1-1.995-1.9V511.249a1.8,1.8,0,0,1,.209-.859,1.54,1.54,0,0,1,.579-.615Z" transform="translate(-198.428 -161.185)"/>
    <path id="Path_29" data-name="Path 29" class="cls-22" d="M692.292,492.175a1.174,1.174,0,0,1,.284-.826,1.034,1.034,0,0,1,.8-.308h16.357a10.274,10.274,0,0,1,4.09.826,10.649,10.649,0,0,1,3.363,2.268,10.812,10.812,0,0,1,2.279,3.375,10.343,10.343,0,0,1,.837,4.151,9.982,9.982,0,0,1-.579,3.437,9.352,9.352,0,0,1-1.638,2.846,12.05,12.05,0,0,1,2.808,3.867,11.211,11.211,0,0,1,1.035,4.756,10.658,10.658,0,0,1-.863,4.249,11.593,11.593,0,0,1-2.328,3.523,11.069,11.069,0,0,1-3.424,2.4,9.889,9.889,0,0,1-4.127.887H693.377a1.163,1.163,0,0,1-.789-.258,1.015,1.015,0,0,1-.3-.8Zm18.551,9.706a3.484,3.484,0,0,0-1.037-2.512,3.564,3.564,0,0,0-1.185-.776,3.923,3.923,0,0,0-1.507-.283h-5.287v7.144h5.213a4.434,4.434,0,0,0,1.544-.259,3.335,3.335,0,0,0,1.2-.739,3.53,3.53,0,0,0,.778-1.132A3.571,3.571,0,0,0,710.843,501.881Zm1.306,14.314a4.092,4.092,0,0,0-.284-1.479,4.373,4.373,0,0,0-.791-1.317,4.168,4.168,0,0,0-1.21-.949,3.224,3.224,0,0,0-1.519-.369h-6.519v8.228h6.519a3.346,3.346,0,0,0,1.507-.344,4.057,4.057,0,0,0,1.21-.924,4.293,4.293,0,0,0,1.086-2.846Z" transform="translate(-297.411 -148.115)"/>
    <path id="Path_30" data-name="Path 30" class="cls-22" d="M893.868,513.683A15.507,15.507,0,0,1,892.353,515a12.311,12.311,0,0,1-1.848,1.17,11.164,11.164,0,0,1-2.143.839,9.044,9.044,0,0,1-2.427.32,15,15,0,0,1-6.171-1.258,14.759,14.759,0,0,1-4.853-3.437,15.814,15.814,0,0,1-3.178-5.135,18.241,18.241,0,0,1,0-12.725,15.852,15.852,0,0,1,3.178-5.124,14.6,14.6,0,0,1,4.853-3.425,15.125,15.125,0,0,1,6.171-1.244,12.158,12.158,0,0,1,2.476.234,8.794,8.794,0,0,1,3.745,1.737,13.483,13.483,0,0,1,1.466,1.354V478.036a1.933,1.933,0,0,1,.481-1.33,1.826,1.826,0,0,1,1.44-.543h5.544a1.926,1.926,0,0,1,.677.136,2.29,2.29,0,0,1,.652.381,1.983,1.983,0,0,1,.48.592,1.588,1.588,0,0,1,.185.765v36.83q0,1.9-1.995,1.9h-4.83a1.908,1.908,0,0,1-.763-.122,1.224,1.224,0,0,1-.456-.358,2.458,2.458,0,0,1-.332-.591c-.1-.237-.222-.514-.369-.825Zm-14.412-12.538a8.981,8.981,0,0,0,.505,3.042,7.207,7.207,0,0,0,1.441,2.451,6.859,6.859,0,0,0,2.254,1.639,6.935,6.935,0,0,0,2.919.6,7.791,7.791,0,0,0,2.968-.568,7.528,7.528,0,0,0,2.427-1.564,7.811,7.811,0,0,0,2.365-5.259v-.344a7.788,7.788,0,0,0-.592-3.007,7.983,7.983,0,0,0-1.638-2.513,7.768,7.768,0,0,0-2.463-1.712,7.482,7.482,0,0,0-3.068-.627,6.7,6.7,0,0,0-2.919.627,6.821,6.821,0,0,0-2.254,1.712,7.753,7.753,0,0,0-1.441,2.513A8.939,8.939,0,0,0,879.456,501.145Z" transform="translate(-427.592 -137.252)"/>
    <path id="Path_31" data-name="Path 31" class="cls-20" d="M491.846,436.5c4.241-1.445,6.474-3.265,7.675-4.785a10.068,10.068,0,1,0,.225,4.522C494.623,438.675,491.846,436.5,491.846,436.5Zm-2.421-5.273a1.7,1.7,0,1,1,2.383.263A1.7,1.7,0,0,1,489.425,431.225Z" transform="translate(-142.287 -99.495)"/>
    <path id="Path_32" data-name="Path 32" class="cls-22" d="M822.763,523.383s2.008,1.6,5.742-.469v17.151a1.89,1.89,0,0,1-.506,1.426,2.133,2.133,0,0,1-1.483.469h-5.648a1.651,1.651,0,0,1-1.82-1.9V512.593a2.1,2.1,0,0,1,.451-1.351,1.64,1.64,0,0,1,1.37-.563h5.648a1.617,1.617,0,0,1,.638.131,2.254,2.254,0,0,1,.638.394,2.206,2.206,0,0,1,.506.6,1.459,1.459,0,0,1,.206.788v6.343C828.186,519.912,826.985,521.938,822.763,523.383Z" transform="translate(-389.96 -162.454)"/>
    <path id="Path_33" data-name="Path 33" class="cls-20" d="M816.244,448.025a6.984,6.984,0,0,0-6.793,5.367c.732,1.126,2.289,2.589,5.592,3.7,0,0-1.933,1.539-5.536-.169a7.007,7.007,0,1,0,6.737-8.895Zm-1.126,4.9a1.175,1.175,0,0,1-1.464-1.839,1.175,1.175,0,1,1,1.464,1.839Z" transform="translate(-382.954 -116.707)"/>
  </g>
</svg>
